<mxfile host="app.diagrams.net" modified="2021-07-26T17:53:32.812Z" agent="5.0 (X11)" etag="77R0atju6RyZLQtnAipq" version="14.9.2" type="github">
  <diagram id="GA7JvFSTfR5UvjS3zdCi" name="Page-1">
    <mxGraphModel dx="1355" dy="793" grid="1" gridSize="10" guides="1" tooltips="1" connect="1" arrows="1" fold="1" page="1" pageScale="1" pageWidth="827" pageHeight="1169" math="0" shadow="0">
      <root>
        <mxCell id="0" />
        <mxCell id="1" parent="0" />
        <mxCell id="i92UBZPYgpHDVVU4iysN-3" style="edgeStyle=orthogonalEdgeStyle;rounded=0;orthogonalLoop=1;jettySize=auto;html=1;entryX=0;entryY=0.5;entryDx=0;entryDy=0;fontSize=18;" parent="1" source="i92UBZPYgpHDVVU4iysN-1" target="i92UBZPYgpHDVVU4iysN-2" edge="1">
          <mxGeometry relative="1" as="geometry" />
        </mxCell>
        <mxCell id="i92UBZPYgpHDVVU4iysN-8" style="edgeStyle=orthogonalEdgeStyle;rounded=0;orthogonalLoop=1;jettySize=auto;html=1;entryX=0;entryY=0.5;entryDx=0;entryDy=0;fontSize=5;" parent="1" source="i92UBZPYgpHDVVU4iysN-1" target="i92UBZPYgpHDVVU4iysN-7" edge="1">
          <mxGeometry relative="1" as="geometry" />
        </mxCell>
        <mxCell id="i92UBZPYgpHDVVU4iysN-1" value="&lt;div style=&quot;background-color: rgb(255, 255, 255); font-family: &amp;quot;droid sans mono&amp;quot;, &amp;quot;monospace&amp;quot;, monospace, &amp;quot;droid sans fallback&amp;quot;; font-weight: normal; font-size: 18px; line-height: 19px;&quot;&gt;&lt;div style=&quot;font-size: 18px;&quot;&gt;&lt;font style=&quot;font-size: 18px;&quot;&gt;snd_card_new&lt;/font&gt;&lt;/div&gt;&lt;/div&gt;" style="whiteSpace=wrap;html=1;fontSize=18;" parent="1" vertex="1">
          <mxGeometry x="80" y="190" width="130" height="60" as="geometry" />
        </mxCell>
        <mxCell id="i92UBZPYgpHDVVU4iysN-6" style="edgeStyle=orthogonalEdgeStyle;rounded=0;orthogonalLoop=1;jettySize=auto;html=1;entryX=0;entryY=0.5;entryDx=0;entryDy=0;dashed=1;fontSize=18;" parent="1" source="i92UBZPYgpHDVVU4iysN-2" target="i92UBZPYgpHDVVU4iysN-5" edge="1">
          <mxGeometry relative="1" as="geometry" />
        </mxCell>
        <mxCell id="i92UBZPYgpHDVVU4iysN-2" value="&lt;div style=&quot;background-color: rgb(255, 255, 255); font-family: &amp;quot;droid sans mono&amp;quot;, &amp;quot;monospace&amp;quot;, monospace, &amp;quot;droid sans fallback&amp;quot;; font-weight: normal; font-size: 18px; line-height: 19px;&quot;&gt;&lt;div style=&quot;font-size: 18px;&quot;&gt;&lt;font style=&quot;font-size: 18px;&quot;&gt;kzalloc&lt;/font&gt;&lt;/div&gt;&lt;/div&gt;" style="whiteSpace=wrap;html=1;fontSize=18;" parent="1" vertex="1">
          <mxGeometry x="300" y="190" width="100" height="60" as="geometry" />
        </mxCell>
        <mxCell id="i92UBZPYgpHDVVU4iysN-5" value="&lt;div style=&quot;background-color: rgb(255, 255, 255); font-family: &amp;quot;droid sans mono&amp;quot;, &amp;quot;monospace&amp;quot;, monospace, &amp;quot;droid sans fallback&amp;quot;; font-weight: normal; font-size: 18px; line-height: 19px;&quot;&gt;&lt;div style=&quot;font-size: 18px;&quot;&gt;&lt;font style=&quot;font-size: 18px;&quot;&gt;snd_card&lt;/font&gt;&lt;/div&gt;&lt;/div&gt;" style="shape=process;whiteSpace=wrap;html=1;backgroundOutline=1;fontSize=18;" parent="1" vertex="1">
          <mxGeometry x="470" y="190" width="120" height="60" as="geometry" />
        </mxCell>
        <mxCell id="i92UBZPYgpHDVVU4iysN-69" style="edgeStyle=orthogonalEdgeStyle;rounded=0;orthogonalLoop=1;jettySize=auto;html=1;fontSize=14;" parent="1" source="i92UBZPYgpHDVVU4iysN-7" target="i92UBZPYgpHDVVU4iysN-9" edge="1">
          <mxGeometry relative="1" as="geometry" />
        </mxCell>
        <mxCell id="i92UBZPYgpHDVVU4iysN-7" value="&lt;div style=&quot;background-color: rgb(255, 255, 255); font-family: &amp;quot;droid sans mono&amp;quot;, &amp;quot;monospace&amp;quot;, monospace, &amp;quot;droid sans fallback&amp;quot;; font-weight: normal; font-size: 18px; line-height: 19px;&quot;&gt;&lt;div style=&quot;font-size: 18px;&quot;&gt;snd_ctl_create&lt;/div&gt;&lt;/div&gt;" style="whiteSpace=wrap;html=1;fontSize=18;" parent="1" vertex="1">
          <mxGeometry x="300" y="330" width="140" height="60" as="geometry" />
        </mxCell>
        <mxCell id="i92UBZPYgpHDVVU4iysN-15" style="edgeStyle=orthogonalEdgeStyle;rounded=0;orthogonalLoop=1;jettySize=auto;html=1;fontSize=5;entryX=0;entryY=0.5;entryDx=0;entryDy=0;" parent="1" source="i92UBZPYgpHDVVU4iysN-9" target="i92UBZPYgpHDVVU4iysN-13" edge="1">
          <mxGeometry relative="1" as="geometry">
            <mxPoint x="690" y="70" as="targetPoint" />
          </mxGeometry>
        </mxCell>
        <mxCell id="i92UBZPYgpHDVVU4iysN-9" value="&lt;div style=&quot;background-color: rgb(255 , 255 , 255) ; font-family: &amp;#34;droid sans mono&amp;#34; , &amp;#34;monospace&amp;#34; , monospace , &amp;#34;droid sans fallback&amp;#34; ; font-weight: normal ; font-size: 18px ; line-height: 19px&quot;&gt;&lt;div&gt;&lt;font style=&quot;font-size: 18px&quot;&gt;snd_device_new&lt;/font&gt;&lt;/div&gt;&lt;/div&gt;" style="whiteSpace=wrap;html=1;fontSize=5;" parent="1" vertex="1">
          <mxGeometry x="940" y="330" width="150" height="60" as="geometry" />
        </mxCell>
        <mxCell id="i92UBZPYgpHDVVU4iysN-17" style="edgeStyle=orthogonalEdgeStyle;rounded=0;orthogonalLoop=1;jettySize=auto;html=1;entryX=0;entryY=0.5;entryDx=0;entryDy=0;fontSize=5;dashed=1;" parent="1" source="i92UBZPYgpHDVVU4iysN-13" target="i92UBZPYgpHDVVU4iysN-16" edge="1">
          <mxGeometry relative="1" as="geometry" />
        </mxCell>
        <mxCell id="i92UBZPYgpHDVVU4iysN-13" value="&lt;div style=&quot;background-color: rgb(255 , 255 , 255) ; font-family: &amp;#34;droid sans mono&amp;#34; , &amp;#34;monospace&amp;#34; , monospace , &amp;#34;droid sans fallback&amp;#34; ; font-weight: normal ; font-size: 18px ; line-height: 19px&quot;&gt;&lt;div&gt;&lt;font style=&quot;font-size: 18px&quot;&gt;kzalloc&lt;/font&gt;&lt;/div&gt;&lt;/div&gt;" style="whiteSpace=wrap;html=1;fontSize=5;" parent="1" vertex="1">
          <mxGeometry x="1130" y="330" width="90" height="60" as="geometry" />
        </mxCell>
        <mxCell id="i92UBZPYgpHDVVU4iysN-60" style="edgeStyle=orthogonalEdgeStyle;rounded=0;orthogonalLoop=1;jettySize=auto;html=1;entryX=0;entryY=0.5;entryDx=0;entryDy=0;dashed=1;fontSize=14;" parent="1" source="i92UBZPYgpHDVVU4iysN-16" target="i92UBZPYgpHDVVU4iysN-59" edge="1">
          <mxGeometry relative="1" as="geometry" />
        </mxCell>
        <mxCell id="i92UBZPYgpHDVVU4iysN-16" value="&lt;div style=&quot;background-color: rgb(255 , 255 , 255) ; font-family: &amp;#34;droid sans mono&amp;#34; , &amp;#34;monospace&amp;#34; , monospace , &amp;#34;droid sans fallback&amp;#34; ; font-weight: normal ; font-size: 14px ; line-height: 19px&quot;&gt;&lt;div&gt;&lt;font style=&quot;font-size: 18px&quot;&gt;snd_device&lt;/font&gt;&lt;/div&gt;&lt;/div&gt;" style="shape=process;whiteSpace=wrap;html=1;backgroundOutline=1;fontSize=5;" parent="1" vertex="1">
          <mxGeometry x="1270" y="330" width="130" height="60" as="geometry" />
        </mxCell>
        <mxCell id="i92UBZPYgpHDVVU4iysN-19" value="&lt;font style=&quot;font-size: 14px;&quot;&gt;inser&lt;/font&gt;t" style="text;html=1;align=center;verticalAlign=middle;resizable=0;points=[];autosize=1;strokeColor=none;fontSize=14;" parent="1" vertex="1">
          <mxGeometry x="1430" y="340" width="50" height="20" as="geometry" />
        </mxCell>
        <mxCell id="i92UBZPYgpHDVVU4iysN-23" value="&lt;div style=&quot;color: rgb(0 , 0 , 0) ; background-color: rgb(255 , 255 , 255) ; font-family: &amp;#34;droid sans mono&amp;#34; , &amp;#34;monospace&amp;#34; , monospace , &amp;#34;droid sans fallback&amp;#34; ; font-weight: normal ; font-size: 12px ; line-height: 19px&quot; align=&quot;center&quot;&gt;&lt;div&gt;&lt;font style=&quot;font-size: 12px&quot;&gt;&lt;span style=&quot;color: #000000&quot;&gt;    &lt;/span&gt;&lt;span style=&quot;color: #0000ff&quot;&gt;static&lt;/span&gt;&lt;span style=&quot;color: #000000&quot;&gt; &lt;/span&gt;&lt;span style=&quot;color: #0000ff&quot;&gt;struct&lt;/span&gt;&lt;span style=&quot;color: #000000&quot;&gt; &lt;/span&gt;&lt;span style=&quot;color: #267f99&quot;&gt;snd_device_ops&lt;/span&gt;&lt;span style=&quot;color: #000000&quot;&gt; &lt;/span&gt;&lt;span style=&quot;color: #001080&quot;&gt;ops&lt;/span&gt;&lt;span style=&quot;color: #000000&quot;&gt; = {&lt;/span&gt;&lt;/font&gt;&lt;/div&gt;&lt;div&gt;&lt;font style=&quot;font-size: 12px&quot;&gt;&lt;span style=&quot;color: #000000&quot;&gt;        .dev_free = &lt;/span&gt;&lt;span style=&quot;color: #795e26&quot;&gt;snd_ctl_dev_free&lt;/span&gt;&lt;span style=&quot;color: #000000&quot;&gt;,&lt;/span&gt;&lt;/font&gt;&lt;/div&gt;&lt;div&gt;&lt;font style=&quot;font-size: 12px&quot;&gt;&lt;span style=&quot;color: #000000&quot;&gt;        .dev_register = &lt;/span&gt;&lt;span style=&quot;color: #795e26&quot;&gt;snd_ctl_dev_register&lt;/span&gt;&lt;span style=&quot;color: #000000&quot;&gt;,&lt;/span&gt;&lt;/font&gt;&lt;/div&gt;&lt;div&gt;&lt;font style=&quot;font-size: 12px&quot;&gt;&lt;span style=&quot;color: #000000&quot;&gt;        .dev_disconnect = &lt;/span&gt;&lt;span style=&quot;color: #795e26&quot;&gt;snd_ctl_dev_disconnect&lt;/span&gt;&lt;span style=&quot;color: #000000&quot;&gt;,};&lt;/span&gt;&lt;/font&gt;&lt;/div&gt;&lt;/div&gt;" style="text;html=1;align=center;verticalAlign=middle;resizable=0;points=[];autosize=1;strokeColor=none;fontSize=14;" parent="1" vertex="1">
          <mxGeometry x="640" y="280" width="270" height="80" as="geometry" />
        </mxCell>
        <mxCell id="i92UBZPYgpHDVVU4iysN-26" style="edgeStyle=orthogonalEdgeStyle;rounded=0;orthogonalLoop=1;jettySize=auto;html=1;entryX=0;entryY=0.5;entryDx=0;entryDy=0;fontSize=14;" parent="1" source="i92UBZPYgpHDVVU4iysN-24" target="i92UBZPYgpHDVVU4iysN-25" edge="1">
          <mxGeometry relative="1" as="geometry" />
        </mxCell>
        <mxCell id="i92UBZPYgpHDVVU4iysN-34" style="edgeStyle=orthogonalEdgeStyle;rounded=0;orthogonalLoop=1;jettySize=auto;html=1;entryX=0;entryY=0.5;entryDx=0;entryDy=0;fontSize=14;" parent="1" source="i92UBZPYgpHDVVU4iysN-24" target="i92UBZPYgpHDVVU4iysN-27" edge="1">
          <mxGeometry relative="1" as="geometry" />
        </mxCell>
        <mxCell id="i92UBZPYgpHDVVU4iysN-37" style="edgeStyle=orthogonalEdgeStyle;rounded=0;orthogonalLoop=1;jettySize=auto;html=1;entryX=0;entryY=0.5;entryDx=0;entryDy=0;fontSize=14;dashed=1;" parent="1" source="i92UBZPYgpHDVVU4iysN-24" target="i92UBZPYgpHDVVU4iysN-35" edge="1">
          <mxGeometry relative="1" as="geometry" />
        </mxCell>
        <mxCell id="i92UBZPYgpHDVVU4iysN-24" value="&lt;div style=&quot;background-color: rgb(255 , 255 , 255) ; font-family: &amp;quot;droid sans mono&amp;quot; , &amp;quot;monospace&amp;quot; , monospace , &amp;quot;droid sans fallback&amp;quot; ; font-weight: normal ; font-size: 18px ; line-height: 19px&quot;&gt;&lt;div&gt;&lt;font style=&quot;font-size: 18px&quot;&gt;snd_card_register&lt;/font&gt;&lt;/div&gt;&lt;/div&gt;" style="whiteSpace=wrap;html=1;fontSize=14;align=center;" parent="1" vertex="1">
          <mxGeometry x="30" y="1040" width="160" height="60" as="geometry" />
        </mxCell>
        <mxCell id="i92UBZPYgpHDVVU4iysN-25" value="&lt;div style=&quot;background-color: rgb(255 , 255 , 255) ; font-family: &amp;#34;droid sans mono&amp;#34; , &amp;#34;monospace&amp;#34; , monospace , &amp;#34;droid sans fallback&amp;#34; ; font-weight: normal ; line-height: 19px&quot;&gt;&lt;div&gt;&lt;font style=&quot;font-size: 14px&quot;&gt;device_add(&amp;amp;card-&amp;gt;card_dev);&lt;/font&gt;&lt;/div&gt;&lt;/div&gt;" style="whiteSpace=wrap;html=1;fontSize=14;align=center;" parent="1" vertex="1">
          <mxGeometry x="250" y="1040" width="210" height="60" as="geometry" />
        </mxCell>
        <mxCell id="i92UBZPYgpHDVVU4iysN-40" style="edgeStyle=orthogonalEdgeStyle;rounded=0;orthogonalLoop=1;jettySize=auto;html=1;fontSize=14;" parent="1" source="i92UBZPYgpHDVVU4iysN-27" target="i92UBZPYgpHDVVU4iysN-38" edge="1">
          <mxGeometry relative="1" as="geometry" />
        </mxCell>
        <mxCell id="i92UBZPYgpHDVVU4iysN-27" value="&lt;div style=&quot;background-color: rgb(255 , 255 , 255) ; font-family: &amp;#34;droid sans mono&amp;#34; , &amp;#34;monospace&amp;#34; , monospace , &amp;#34;droid sans fallback&amp;#34; ; font-weight: normal ; font-size: 18px ; line-height: 19px&quot;&gt;&lt;div&gt;&lt;font style=&quot;font-size: 18px&quot;&gt;snd_device_register_all&lt;/font&gt;&lt;font style=&quot;font-size: 18px&quot;&gt;(card)&lt;/font&gt;&lt;/div&gt;&lt;/div&gt;" style="whiteSpace=wrap;html=1;fontSize=14;align=center;" parent="1" vertex="1">
          <mxGeometry x="250" y="1160" width="270" height="60" as="geometry" />
        </mxCell>
        <mxCell id="i92UBZPYgpHDVVU4iysN-35" value="&lt;div style=&quot;background-color: rgb(255 , 255 , 255) ; font-family: &amp;#34;droid sans mono&amp;#34; , &amp;#34;monospace&amp;#34; , monospace , &amp;#34;droid sans fallback&amp;#34; ; font-weight: normal ; font-size: 14px ; line-height: 19px&quot;&gt;&lt;div&gt;snd_cards[card-&amp;gt;number]=card&lt;/div&gt;&lt;/div&gt;" style="shape=process;whiteSpace=wrap;html=1;backgroundOutline=1;fontSize=14;align=center;" parent="1" vertex="1">
          <mxGeometry x="250" y="1270" width="260" height="60" as="geometry" />
        </mxCell>
        <mxCell id="i92UBZPYgpHDVVU4iysN-41" style="edgeStyle=orthogonalEdgeStyle;rounded=0;orthogonalLoop=1;jettySize=auto;html=1;entryX=0;entryY=0.5;entryDx=0;entryDy=0;fontSize=14;" parent="1" source="i92UBZPYgpHDVVU4iysN-38" target="i92UBZPYgpHDVVU4iysN-39" edge="1">
          <mxGeometry relative="1" as="geometry" />
        </mxCell>
        <mxCell id="i92UBZPYgpHDVVU4iysN-38" value="&lt;div style=&quot;background-color: rgb(255 , 255 , 255) ; font-family: &amp;#34;droid sans mono&amp;#34; , &amp;#34;monospace&amp;#34; , monospace , &amp;#34;droid sans fallback&amp;#34; ; font-weight: normal ; font-size: 18px ; line-height: 19px&quot;&gt;&lt;div&gt;&lt;font style=&quot;font-size: 18px&quot;&gt;snd_device_register&lt;/font&gt;&lt;/div&gt;&lt;/div&gt;" style="whiteSpace=wrap;html=1;fontSize=14;align=center;" parent="1" vertex="1">
          <mxGeometry x="610" y="1160" width="190" height="60" as="geometry" />
        </mxCell>
        <mxCell id="i92UBZPYgpHDVVU4iysN-44" style="edgeStyle=orthogonalEdgeStyle;rounded=0;orthogonalLoop=1;jettySize=auto;html=1;fontSize=14;" parent="1" source="i92UBZPYgpHDVVU4iysN-39" target="i92UBZPYgpHDVVU4iysN-43" edge="1">
          <mxGeometry relative="1" as="geometry" />
        </mxCell>
        <mxCell id="i92UBZPYgpHDVVU4iysN-39" value="&lt;div style=&quot;background-color: rgb(255 , 255 , 255) ; font-family: &amp;#34;droid sans mono&amp;#34; , &amp;#34;monospace&amp;#34; , monospace , &amp;#34;droid sans fallback&amp;#34; ; font-weight: normal ; font-size: 18px ; line-height: 19px&quot;&gt;&lt;div&gt;&lt;font style=&quot;font-size: 18px&quot;&gt;__snd_device_register&lt;/font&gt;&lt;/div&gt;&lt;/div&gt;" style="whiteSpace=wrap;html=1;fontSize=14;align=center;" parent="1" vertex="1">
          <mxGeometry x="870" y="1160" width="220" height="60" as="geometry" />
        </mxCell>
        <mxCell id="i92UBZPYgpHDVVU4iysN-47" style="edgeStyle=orthogonalEdgeStyle;rounded=0;orthogonalLoop=1;jettySize=auto;html=1;entryX=0;entryY=0.5;entryDx=0;entryDy=0;fontSize=14;dashed=1;" parent="1" source="i92UBZPYgpHDVVU4iysN-43" target="i92UBZPYgpHDVVU4iysN-46" edge="1">
          <mxGeometry relative="1" as="geometry" />
        </mxCell>
        <mxCell id="Il8xRyf-RWIodO80tz---3" style="edgeStyle=orthogonalEdgeStyle;rounded=0;orthogonalLoop=1;jettySize=auto;html=1;dashed=1;" parent="1" source="i92UBZPYgpHDVVU4iysN-43" target="Il8xRyf-RWIodO80tz---1" edge="1">
          <mxGeometry relative="1" as="geometry" />
        </mxCell>
        <mxCell id="i92UBZPYgpHDVVU4iysN-43" value="&lt;div style=&quot;background-color: rgb(255 , 255 , 255) ; font-family: &amp;#34;droid sans mono&amp;#34; , &amp;#34;monospace&amp;#34; , monospace , &amp;#34;droid sans fallback&amp;#34; ; font-weight: normal ; font-size: 14px ; line-height: 19px&quot;&gt;&lt;div&gt;dev-&amp;gt;ops-&amp;gt;dev_register&lt;/div&gt;&lt;/div&gt;" style="whiteSpace=wrap;html=1;fontSize=14;align=center;" parent="1" vertex="1">
          <mxGeometry x="1160" y="1160" width="170" height="60" as="geometry" />
        </mxCell>
        <mxCell id="SOE9RCbYgC2CAfu_grr3-1" style="edgeStyle=orthogonalEdgeStyle;rounded=0;orthogonalLoop=1;jettySize=auto;html=1;entryX=0;entryY=0.5;entryDx=0;entryDy=0;" parent="1" source="i92UBZPYgpHDVVU4iysN-46" target="Il8xRyf-RWIodO80tz---5" edge="1">
          <mxGeometry relative="1" as="geometry" />
        </mxCell>
        <mxCell id="i92UBZPYgpHDVVU4iysN-46" value="&lt;font style=&quot;font-size: 18px&quot;&gt;snd_ctl_dev_register&lt;/font&gt;" style="whiteSpace=wrap;html=1;fontSize=14;align=center;" parent="1" vertex="1">
          <mxGeometry x="1440" y="1070" width="190" height="60" as="geometry" />
        </mxCell>
        <mxCell id="i92UBZPYgpHDVVU4iysN-51" style="edgeStyle=orthogonalEdgeStyle;rounded=0;orthogonalLoop=1;jettySize=auto;html=1;entryX=0;entryY=0.5;entryDx=0;entryDy=0;dashed=1;fontSize=14;" parent="1" source="i92UBZPYgpHDVVU4iysN-49" target="i92UBZPYgpHDVVU4iysN-50" edge="1">
          <mxGeometry relative="1" as="geometry" />
        </mxCell>
        <mxCell id="i92UBZPYgpHDVVU4iysN-49" value="&lt;div style=&quot;background-color: rgb(255 , 255 , 255) ; font-family: &amp;#34;droid sans mono&amp;#34; , &amp;#34;monospace&amp;#34; , monospace , &amp;#34;droid sans fallback&amp;#34; ; font-weight: normal ; font-size: 18px ; line-height: 19px&quot;&gt;&lt;div&gt;&lt;font style=&quot;font-size: 18px&quot;&gt;snd_pcm_new&lt;/font&gt;&lt;/div&gt;&lt;/div&gt;" style="whiteSpace=wrap;html=1;fontSize=14;align=center;" parent="1" vertex="1">
          <mxGeometry x="80" y="460" width="130" height="60" as="geometry" />
        </mxCell>
        <mxCell id="i92UBZPYgpHDVVU4iysN-54" style="edgeStyle=orthogonalEdgeStyle;rounded=0;orthogonalLoop=1;jettySize=auto;html=1;fontSize=14;" parent="1" source="i92UBZPYgpHDVVU4iysN-50" target="i92UBZPYgpHDVVU4iysN-53" edge="1">
          <mxGeometry relative="1" as="geometry" />
        </mxCell>
        <mxCell id="i92UBZPYgpHDVVU4iysN-63" style="edgeStyle=orthogonalEdgeStyle;rounded=0;orthogonalLoop=1;jettySize=auto;html=1;entryX=0;entryY=0.5;entryDx=0;entryDy=0;fontSize=14;" parent="1" source="i92UBZPYgpHDVVU4iysN-50" target="i92UBZPYgpHDVVU4iysN-61" edge="1">
          <mxGeometry relative="1" as="geometry">
            <Array as="points">
              <mxPoint x="460" y="490" />
              <mxPoint x="460" y="585" />
            </Array>
          </mxGeometry>
        </mxCell>
        <mxCell id="i92UBZPYgpHDVVU4iysN-64" style="edgeStyle=orthogonalEdgeStyle;rounded=0;orthogonalLoop=1;jettySize=auto;html=1;entryX=0;entryY=0.5;entryDx=0;entryDy=0;fontSize=14;" parent="1" source="i92UBZPYgpHDVVU4iysN-50" target="i92UBZPYgpHDVVU4iysN-62" edge="1">
          <mxGeometry relative="1" as="geometry">
            <Array as="points">
              <mxPoint x="460" y="490" />
              <mxPoint x="460" y="670" />
            </Array>
          </mxGeometry>
        </mxCell>
        <mxCell id="i92UBZPYgpHDVVU4iysN-78" style="edgeStyle=orthogonalEdgeStyle;rounded=0;orthogonalLoop=1;jettySize=auto;html=1;entryX=0;entryY=0.5;entryDx=0;entryDy=0;fontSize=14;" parent="1" source="i92UBZPYgpHDVVU4iysN-50" target="i92UBZPYgpHDVVU4iysN-71" edge="1">
          <mxGeometry relative="1" as="geometry">
            <Array as="points">
              <mxPoint x="460" y="490" />
              <mxPoint x="460" y="840" />
            </Array>
          </mxGeometry>
        </mxCell>
        <mxCell id="i92UBZPYgpHDVVU4iysN-50" value="&lt;div style=&quot;background-color: rgb(255 , 255 , 255) ; font-family: &amp;#34;droid sans mono&amp;#34; , &amp;#34;monospace&amp;#34; , monospace , &amp;#34;droid sans fallback&amp;#34; ; font-weight: normal ; font-size: 18px ; line-height: 19px&quot;&gt;&lt;div&gt;&lt;font style=&quot;font-size: 18px&quot;&gt;_snd_pcm_new&lt;/font&gt;&lt;/div&gt;&lt;/div&gt;" style="whiteSpace=wrap;html=1;fontSize=14;align=center;" parent="1" vertex="1">
          <mxGeometry x="300" y="460" width="120" height="60" as="geometry" />
        </mxCell>
        <mxCell id="i92UBZPYgpHDVVU4iysN-52" value="&lt;div style=&quot;color: rgb(0 , 0 , 0) ; background-color: rgb(255 , 255 , 255) ; font-family: &amp;#34;droid sans mono&amp;#34; , &amp;#34;monospace&amp;#34; , monospace , &amp;#34;droid sans fallback&amp;#34; ; font-weight: normal ; font-size: 12px ; line-height: 19px&quot;&gt;&lt;div&gt;&lt;font style=&quot;font-size: 12px&quot;&gt;&lt;span style=&quot;color: #0000ff&quot;&gt;static&lt;/span&gt;&lt;span style=&quot;color: #000000&quot;&gt; &lt;/span&gt;&lt;span style=&quot;color: #0000ff&quot;&gt;struct&lt;/span&gt;&lt;span style=&quot;color: #000000&quot;&gt; &lt;/span&gt;&lt;span style=&quot;color: #267f99&quot;&gt;snd_device_ops&lt;/span&gt;&lt;span style=&quot;color: #000000&quot;&gt; &lt;/span&gt;&lt;span style=&quot;color: #001080&quot;&gt;ops&lt;/span&gt;&lt;span style=&quot;color: #000000&quot;&gt; = {&lt;/span&gt;&lt;/font&gt;&lt;/div&gt;&lt;div&gt;&lt;font style=&quot;font-size: 12px&quot;&gt;&lt;span style=&quot;color: #000000&quot;&gt;        .dev_free = &lt;/span&gt;&lt;span style=&quot;color: #795e26&quot;&gt;snd_pcm_dev_free&lt;/span&gt;&lt;span style=&quot;color: #000000&quot;&gt;,&lt;/span&gt;&lt;/font&gt;&lt;/div&gt;&lt;div&gt;&lt;font style=&quot;font-size: 12px&quot;&gt;&lt;span style=&quot;color: #000000&quot;&gt;        .dev_register = &lt;/span&gt;&lt;span style=&quot;color: #795e26&quot;&gt;snd_pcm_dev_register&lt;/span&gt;&lt;span style=&quot;color: #000000&quot;&gt;,&lt;/span&gt;&lt;/font&gt;&lt;/div&gt;&lt;div&gt;&lt;font style=&quot;font-size: 12px&quot;&gt;&lt;span style=&quot;color: #000000&quot;&gt;        .dev_disconnect = &lt;/span&gt;&lt;span style=&quot;color: #795e26&quot;&gt;snd_pcm_dev_disconnect&lt;/span&gt;&lt;span style=&quot;color: #000000&quot;&gt;,};&lt;/span&gt;&lt;/font&gt;&lt;/div&gt;&lt;/div&gt;" style="text;html=1;align=center;verticalAlign=middle;resizable=0;points=[];autosize=1;strokeColor=none;fontSize=14;" parent="1" vertex="1">
          <mxGeometry x="490" y="750" width="270" height="80" as="geometry" />
        </mxCell>
        <mxCell id="i92UBZPYgpHDVVU4iysN-56" style="edgeStyle=orthogonalEdgeStyle;rounded=0;orthogonalLoop=1;jettySize=auto;html=1;fontSize=14;dashed=1;" parent="1" source="i92UBZPYgpHDVVU4iysN-53" target="i92UBZPYgpHDVVU4iysN-55" edge="1">
          <mxGeometry relative="1" as="geometry" />
        </mxCell>
        <mxCell id="i92UBZPYgpHDVVU4iysN-53" value="&lt;div style=&quot;background-color: rgb(255 , 255 , 255) ; font-family: &amp;#34;droid sans mono&amp;#34; , &amp;#34;monospace&amp;#34; , monospace , &amp;#34;droid sans fallback&amp;#34; ; font-weight: normal ; font-size: 18px ; line-height: 19px&quot;&gt;&lt;div&gt;&lt;font style=&quot;font-size: 18px&quot;&gt;kzalloc&lt;/font&gt;&lt;/div&gt;&lt;/div&gt;" style="whiteSpace=wrap;html=1;fontSize=14;align=center;" parent="1" vertex="1">
          <mxGeometry x="510" y="460" width="100" height="60" as="geometry" />
        </mxCell>
        <mxCell id="i92UBZPYgpHDVVU4iysN-55" value="&lt;div style=&quot;background-color: rgb(255 , 255 , 255) ; font-family: &amp;#34;droid sans mono&amp;#34; , &amp;#34;monospace&amp;#34; , monospace , &amp;#34;droid sans fallback&amp;#34; ; font-weight: normal ; font-size: 18px ; line-height: 19px&quot;&gt;&lt;div&gt;&lt;font style=&quot;font-size: 18px&quot;&gt;snd_pcm&lt;/font&gt;&lt;/div&gt;&lt;/div&gt;" style="shape=process;whiteSpace=wrap;html=1;backgroundOutline=1;fontSize=14;align=center;" parent="1" vertex="1">
          <mxGeometry x="710" y="460" width="120" height="60" as="geometry" />
        </mxCell>
        <mxCell id="i92UBZPYgpHDVVU4iysN-59" value="&lt;div style=&quot;background-color: rgb(255 , 255 , 255) ; font-family: &amp;#34;droid sans mono&amp;#34; , &amp;#34;monospace&amp;#34; , monospace , &amp;#34;droid sans fallback&amp;#34; ; font-weight: normal ; font-size: 18px ; line-height: 19px&quot;&gt;&lt;div&gt;&lt;font style=&quot;font-size: 18px&quot;&gt;card-&amp;gt;devices&lt;/font&gt;&lt;/div&gt;&lt;/div&gt;" style="shape=process;whiteSpace=wrap;html=1;backgroundOutline=1;fontSize=14;align=center;" parent="1" vertex="1">
          <mxGeometry x="1510" y="330" width="160" height="60" as="geometry" />
        </mxCell>
        <mxCell id="i92UBZPYgpHDVVU4iysN-61" value="&lt;div style=&quot;background-color: rgb(255 , 255 , 255) ; font-family: &amp;#34;droid sans mono&amp;#34; , &amp;#34;monospace&amp;#34; , monospace , &amp;#34;droid sans fallback&amp;#34; ; font-weight: normal ; line-height: 19px&quot;&gt;&lt;div&gt;&lt;font style=&quot;font-size: 14px&quot;&gt;snd_pcm_new_stream(SNDRV_PCM_STREAM_PLAYBACK)&lt;/font&gt;&lt;/div&gt;&lt;/div&gt;" style="whiteSpace=wrap;html=1;fontSize=14;align=center;" parent="1" vertex="1">
          <mxGeometry x="510" y="555" width="330" height="60" as="geometry" />
        </mxCell>
        <mxCell id="i92UBZPYgpHDVVU4iysN-62" value="&lt;div style=&quot;background-color: rgb(255 , 255 , 255) ; font-family: &amp;#34;droid sans mono&amp;#34; , &amp;#34;monospace&amp;#34; , monospace , &amp;#34;droid sans fallback&amp;#34; ; font-weight: normal ; line-height: 19px&quot;&gt;&lt;div&gt;&lt;font style=&quot;font-size: 14px&quot;&gt;snd_pcm_new_stream(&lt;/font&gt;&lt;span style=&quot;color: #000000&quot;&gt;SNDRV_PCM_STREAM_CAPTURE&lt;/span&gt;&lt;font style=&quot;font-size: 14px&quot;&gt;)&lt;/font&gt;&lt;/div&gt;&lt;/div&gt;" style="whiteSpace=wrap;html=1;fontSize=14;align=center;" parent="1" vertex="1">
          <mxGeometry x="510" y="640" width="330" height="60" as="geometry" />
        </mxCell>
        <mxCell id="i92UBZPYgpHDVVU4iysN-66" value="&lt;div style=&quot;background-color: rgb(255 , 255 , 255) ; font-weight: normal ; font-size: 12px ; line-height: 19px&quot;&gt;&lt;div&gt;&lt;font style=&quot;font-size: 12px&quot; face=&quot;Verdana&quot;&gt;SNDRV_DEV_CONTROL&lt;/font&gt;&lt;/div&gt;&lt;/div&gt;" style="text;html=1;align=center;verticalAlign=middle;resizable=0;points=[];autosize=1;strokeColor=none;fontSize=14;" parent="1" vertex="1">
          <mxGeometry x="687" y="370" width="140" height="20" as="geometry" />
        </mxCell>
        <mxCell id="i92UBZPYgpHDVVU4iysN-70" style="edgeStyle=orthogonalEdgeStyle;rounded=0;orthogonalLoop=1;jettySize=auto;html=1;fontSize=5;entryX=0;entryY=0.5;entryDx=0;entryDy=0;" parent="1" source="i92UBZPYgpHDVVU4iysN-71" target="i92UBZPYgpHDVVU4iysN-73" edge="1">
          <mxGeometry relative="1" as="geometry">
            <mxPoint x="550" y="550" as="targetPoint" />
          </mxGeometry>
        </mxCell>
        <mxCell id="i92UBZPYgpHDVVU4iysN-71" value="&lt;div style=&quot;background-color: rgb(255 , 255 , 255) ; font-family: &amp;#34;droid sans mono&amp;#34; , &amp;#34;monospace&amp;#34; , monospace , &amp;#34;droid sans fallback&amp;#34; ; font-weight: normal ; font-size: 18px ; line-height: 19px&quot;&gt;&lt;div&gt;&lt;font style=&quot;font-size: 18px&quot;&gt;snd_device_new&lt;/font&gt;&lt;/div&gt;&lt;/div&gt;" style="whiteSpace=wrap;html=1;fontSize=5;" parent="1" vertex="1">
          <mxGeometry x="800" y="810" width="150" height="60" as="geometry" />
        </mxCell>
        <mxCell id="i92UBZPYgpHDVVU4iysN-72" style="edgeStyle=orthogonalEdgeStyle;rounded=0;orthogonalLoop=1;jettySize=auto;html=1;entryX=0;entryY=0.5;entryDx=0;entryDy=0;fontSize=5;dashed=1;" parent="1" source="i92UBZPYgpHDVVU4iysN-73" target="i92UBZPYgpHDVVU4iysN-75" edge="1">
          <mxGeometry relative="1" as="geometry" />
        </mxCell>
        <mxCell id="i92UBZPYgpHDVVU4iysN-73" value="&lt;div style=&quot;background-color: rgb(255 , 255 , 255) ; font-family: &amp;#34;droid sans mono&amp;#34; , &amp;#34;monospace&amp;#34; , monospace , &amp;#34;droid sans fallback&amp;#34; ; font-weight: normal ; font-size: 18px ; line-height: 19px&quot;&gt;&lt;div&gt;&lt;font style=&quot;font-size: 18px&quot;&gt;kzalloc&lt;/font&gt;&lt;/div&gt;&lt;/div&gt;" style="whiteSpace=wrap;html=1;fontSize=5;" parent="1" vertex="1">
          <mxGeometry x="990" y="810" width="90" height="60" as="geometry" />
        </mxCell>
        <mxCell id="i92UBZPYgpHDVVU4iysN-74" style="edgeStyle=orthogonalEdgeStyle;rounded=0;orthogonalLoop=1;jettySize=auto;html=1;entryX=0;entryY=0.5;entryDx=0;entryDy=0;dashed=1;fontSize=14;" parent="1" source="i92UBZPYgpHDVVU4iysN-75" target="i92UBZPYgpHDVVU4iysN-77" edge="1">
          <mxGeometry relative="1" as="geometry" />
        </mxCell>
        <mxCell id="i92UBZPYgpHDVVU4iysN-75" value="&lt;div style=&quot;background-color: rgb(255 , 255 , 255) ; font-family: &amp;#34;droid sans mono&amp;#34; , &amp;#34;monospace&amp;#34; , monospace , &amp;#34;droid sans fallback&amp;#34; ; font-weight: normal ; font-size: 14px ; line-height: 19px&quot;&gt;&lt;div&gt;&lt;font style=&quot;font-size: 18px&quot;&gt;snd_device&lt;/font&gt;&lt;/div&gt;&lt;/div&gt;" style="shape=process;whiteSpace=wrap;html=1;backgroundOutline=1;fontSize=5;" parent="1" vertex="1">
          <mxGeometry x="1130" y="810" width="130" height="60" as="geometry" />
        </mxCell>
        <mxCell id="i92UBZPYgpHDVVU4iysN-76" value="&lt;font style=&quot;font-size: 14px;&quot;&gt;inser&lt;/font&gt;t" style="text;html=1;align=center;verticalAlign=middle;resizable=0;points=[];autosize=1;strokeColor=none;fontSize=14;" parent="1" vertex="1">
          <mxGeometry x="1290" y="820" width="50" height="20" as="geometry" />
        </mxCell>
        <mxCell id="i92UBZPYgpHDVVU4iysN-77" value="&lt;div style=&quot;background-color: rgb(255 , 255 , 255) ; font-family: &amp;#34;droid sans mono&amp;#34; , &amp;#34;monospace&amp;#34; , monospace , &amp;#34;droid sans fallback&amp;#34; ; font-weight: normal ; font-size: 18px ; line-height: 19px&quot;&gt;&lt;div&gt;&lt;font style=&quot;font-size: 18px&quot;&gt;card-&amp;gt;devices&lt;/font&gt;&lt;/div&gt;&lt;/div&gt;" style="shape=process;whiteSpace=wrap;html=1;backgroundOutline=1;fontSize=14;align=center;" parent="1" vertex="1">
          <mxGeometry x="1370" y="810" width="160" height="60" as="geometry" />
        </mxCell>
        <mxCell id="i92UBZPYgpHDVVU4iysN-79" value="&lt;div style=&quot;background-color: rgb(255 , 255 , 255) ; font-family: &amp;#34;droid sans mono&amp;#34; , &amp;#34;monospace&amp;#34; , monospace , &amp;#34;droid sans fallback&amp;#34; ; font-weight: normal ; font-size: 14px ; line-height: 19px&quot;&gt;&lt;div&gt;SNDRV_DEV_PCM&lt;/div&gt;&lt;/div&gt;" style="text;html=1;align=center;verticalAlign=middle;resizable=0;points=[];autosize=1;strokeColor=none;fontSize=14;" parent="1" vertex="1">
          <mxGeometry x="560" y="850" width="110" height="20" as="geometry" />
        </mxCell>
        <mxCell id="Il8xRyf-RWIodO80tz---6" style="edgeStyle=orthogonalEdgeStyle;rounded=0;orthogonalLoop=1;jettySize=auto;html=1;fontSize=18;fontColor=#000000;" parent="1" source="Il8xRyf-RWIodO80tz---1" target="Il8xRyf-RWIodO80tz---5" edge="1">
          <mxGeometry relative="1" as="geometry" />
        </mxCell>
        <mxCell id="Il8xRyf-RWIodO80tz---7" style="edgeStyle=orthogonalEdgeStyle;rounded=0;orthogonalLoop=1;jettySize=auto;html=1;entryX=0;entryY=0.5;entryDx=0;entryDy=0;fontSize=18;fontColor=#000000;" parent="1" source="Il8xRyf-RWIodO80tz---1" target="Il8xRyf-RWIodO80tz---4" edge="1">
          <mxGeometry relative="1" as="geometry" />
        </mxCell>
        <mxCell id="Il8xRyf-RWIodO80tz---1" value="&lt;font style=&quot;font-size: 18px&quot;&gt;snd_pcm_dev_register&lt;/font&gt;" style="whiteSpace=wrap;html=1;" parent="1" vertex="1">
          <mxGeometry x="1440" y="1210" width="200" height="60" as="geometry" />
        </mxCell>
        <mxCell id="Il8xRyf-RWIodO80tz---4" value="&lt;div style=&quot;background-color: rgb(255, 255, 255); font-family: &amp;quot;droid sans mono&amp;quot;, &amp;quot;monospace&amp;quot;, monospace, &amp;quot;droid sans fallback&amp;quot;; font-weight: normal; font-size: 18px; line-height: 19px;&quot;&gt;&lt;div style=&quot;font-size: 18px;&quot;&gt;&lt;span style=&quot;font-size: 18px;&quot;&gt;snd_pcm_add&lt;/span&gt;&lt;/div&gt;&lt;/div&gt;" style="whiteSpace=wrap;html=1;fontSize=18;" parent="1" vertex="1">
          <mxGeometry x="1730" y="1140" width="130" height="60" as="geometry" />
        </mxCell>
        <mxCell id="Il8xRyf-RWIodO80tz---14" style="edgeStyle=orthogonalEdgeStyle;rounded=0;orthogonalLoop=1;jettySize=auto;html=1;entryX=0;entryY=0.5;entryDx=0;entryDy=0;fontSize=18;fontColor=#000000;" parent="1" source="Il8xRyf-RWIodO80tz---5" target="Il8xRyf-RWIodO80tz---12" edge="1">
          <mxGeometry relative="1" as="geometry" />
        </mxCell>
        <mxCell id="Il8xRyf-RWIodO80tz---15" style="edgeStyle=orthogonalEdgeStyle;rounded=0;orthogonalLoop=1;jettySize=auto;html=1;entryX=0;entryY=0.5;entryDx=0;entryDy=0;fontSize=18;fontColor=#000000;dashed=1;" parent="1" source="Il8xRyf-RWIodO80tz---5" target="Il8xRyf-RWIodO80tz---8" edge="1">
          <mxGeometry relative="1" as="geometry" />
        </mxCell>
        <mxCell id="Il8xRyf-RWIodO80tz---5" value="&lt;div style=&quot;background-color: rgb(255, 255, 255); font-family: &amp;quot;droid sans mono&amp;quot;, &amp;quot;monospace&amp;quot;, monospace, &amp;quot;droid sans fallback&amp;quot;; font-weight: normal; font-size: 18px; line-height: 19px;&quot;&gt;&lt;div style=&quot;font-size: 18px;&quot;&gt;&lt;span style=&quot;font-size: 18px;&quot;&gt;snd_register_device&lt;/span&gt;&lt;/div&gt;&lt;/div&gt;" style="whiteSpace=wrap;html=1;fontSize=18;" parent="1" vertex="1">
          <mxGeometry x="1730" y="1210" width="180" height="60" as="geometry" />
        </mxCell>
        <mxCell id="Il8xRyf-RWIodO80tz---8" value="&lt;div style=&quot;background-color: rgb(255 , 255 , 255) ; font-family: &amp;#34;droid sans mono&amp;#34; , &amp;#34;monospace&amp;#34; , monospace , &amp;#34;droid sans fallback&amp;#34; ; font-weight: normal ; line-height: 19px&quot;&gt;&lt;div&gt;&lt;font style=&quot;font-size: 18px&quot;&gt;snd_minors[minor]&lt;/font&gt;&lt;/div&gt;&lt;/div&gt;" style="shape=process;whiteSpace=wrap;html=1;backgroundOutline=1;fontSize=18;fontColor=#000000;" parent="1" vertex="1">
          <mxGeometry x="2100" y="1290" width="210" height="60" as="geometry" />
        </mxCell>
        <mxCell id="Il8xRyf-RWIodO80tz---10" value="&lt;div style=&quot;background-color: rgb(255 , 255 , 255) ; font-family: &amp;#34;droid sans mono&amp;#34; , &amp;#34;monospace&amp;#34; , monospace , &amp;#34;droid sans fallback&amp;#34; ; font-weight: normal ; font-size: 14px ; line-height: 19px&quot;&gt;&lt;div&gt;kmalloc&lt;/div&gt;&lt;/div&gt;" style="text;html=1;align=center;verticalAlign=middle;resizable=0;points=[];autosize=1;strokeColor=none;fontSize=18;fontColor=#000000;" parent="1" vertex="1">
          <mxGeometry x="2020" y="1290" width="60" height="20" as="geometry" />
        </mxCell>
        <mxCell id="Il8xRyf-RWIodO80tz---11" value="&lt;div style=&quot;background-color: rgb(255 , 255 , 255) ; font-family: &amp;#34;droid sans mono&amp;#34; , &amp;#34;monospace&amp;#34; , monospace , &amp;#34;droid sans fallback&amp;#34; ; font-weight: normal ; font-size: 14px ; line-height: 19px&quot;&gt;&lt;div&gt;snd_minor&lt;/div&gt;&lt;/div&gt;" style="text;html=1;align=center;verticalAlign=middle;resizable=0;points=[];autosize=1;strokeColor=none;fontSize=18;fontColor=#000000;" parent="1" vertex="1">
          <mxGeometry x="2010" y="1320" width="80" height="20" as="geometry" />
        </mxCell>
        <mxCell id="Il8xRyf-RWIodO80tz---12" value="&lt;div style=&quot;background-color: rgb(255 , 255 , 255) ; font-family: &amp;#34;droid sans mono&amp;#34; , &amp;#34;monospace&amp;#34; , monospace , &amp;#34;droid sans fallback&amp;#34; ; font-weight: normal ; line-height: 19px&quot;&gt;&lt;div&gt;&lt;font style=&quot;font-size: 18px&quot;&gt;device_add&lt;/font&gt;&lt;/div&gt;&lt;/div&gt;" style="whiteSpace=wrap;html=1;fontSize=18;fontColor=#000000;" parent="1" vertex="1">
          <mxGeometry x="2100" y="1210" width="120" height="60" as="geometry" />
        </mxCell>
        <mxCell id="SOE9RCbYgC2CAfu_grr3-2" value="&lt;div style=&quot;background-color: rgb(255 , 255 , 255) ; font-family: &amp;#34;droid sans mono&amp;#34; , monospace , monospace , &amp;#34;droid sans fallback&amp;#34; ; line-height: 24px&quot;&gt;&lt;font style=&quot;font-size: 14px&quot;&gt;snd_ctl_f_ops&lt;/font&gt;&lt;/div&gt;" style="text;html=1;align=center;verticalAlign=middle;resizable=0;points=[];autosize=1;strokeColor=none;" parent="1" vertex="1">
          <mxGeometry x="1640" y="1070" width="110" height="30" as="geometry" />
        </mxCell>
        <mxCell id="SOE9RCbYgC2CAfu_grr3-8" style="edgeStyle=orthogonalEdgeStyle;rounded=0;orthogonalLoop=1;jettySize=auto;html=1;" parent="1" source="SOE9RCbYgC2CAfu_grr3-4" target="SOE9RCbYgC2CAfu_grr3-7" edge="1">
          <mxGeometry relative="1" as="geometry" />
        </mxCell>
        <mxCell id="SOE9RCbYgC2CAfu_grr3-10" style="edgeStyle=orthogonalEdgeStyle;rounded=0;orthogonalLoop=1;jettySize=auto;html=1;entryX=0;entryY=0.5;entryDx=0;entryDy=0;dashed=1;" parent="1" source="SOE9RCbYgC2CAfu_grr3-4" target="SOE9RCbYgC2CAfu_grr3-5" edge="1">
          <mxGeometry relative="1" as="geometry" />
        </mxCell>
        <mxCell id="SOE9RCbYgC2CAfu_grr3-11" style="edgeStyle=orthogonalEdgeStyle;rounded=0;orthogonalLoop=1;jettySize=auto;html=1;entryX=0;entryY=0.5;entryDx=0;entryDy=0;" parent="1" source="SOE9RCbYgC2CAfu_grr3-4" target="SOE9RCbYgC2CAfu_grr3-9" edge="1">
          <mxGeometry relative="1" as="geometry" />
        </mxCell>
        <mxCell id="Q3NLW80Zpf64P7We51u1-3" style="edgeStyle=orthogonalEdgeStyle;rounded=0;orthogonalLoop=1;jettySize=auto;html=1;entryX=0;entryY=0.5;entryDx=0;entryDy=0;" parent="1" source="SOE9RCbYgC2CAfu_grr3-4" target="Q3NLW80Zpf64P7We51u1-2" edge="1">
          <mxGeometry relative="1" as="geometry" />
        </mxCell>
        <mxCell id="SOE9RCbYgC2CAfu_grr3-4" value="&lt;span style=&quot;font-family: &amp;#34;droid sans mono&amp;#34; , monospace , monospace , &amp;#34;droid sans fallback&amp;#34; ; font-size: 18px ; background-color: rgb(255 , 255 , 255)&quot;&gt;snd_soc_register_codec&lt;/span&gt;" style="whiteSpace=wrap;html=1;" parent="1" vertex="1">
          <mxGeometry x="30" y="1900" width="250" height="60" as="geometry" />
        </mxCell>
        <mxCell id="SOE9RCbYgC2CAfu_grr3-5" value="&lt;div style=&quot;background-color: rgb(255 , 255 , 255) ; font-family: &amp;#34;droid sans mono&amp;#34; , monospace , monospace , &amp;#34;droid sans fallback&amp;#34; ; font-size: 18px ; line-height: 24px&quot;&gt;codec_list&lt;/div&gt;" style="shape=process;whiteSpace=wrap;html=1;backgroundOutline=1;" parent="1" vertex="1">
          <mxGeometry x="430" y="2100" width="140" height="60" as="geometry" />
        </mxCell>
        <mxCell id="SOE9RCbYgC2CAfu_grr3-7" value="&lt;div style=&quot;background-color: rgb(255 , 255 , 255) ; font-family: &amp;#34;droid sans mono&amp;#34; , monospace , monospace , &amp;#34;droid sans fallback&amp;#34; ; font-size: 18px ; line-height: 24px&quot;&gt;snd_soc_register_dais&lt;/div&gt;" style="whiteSpace=wrap;html=1;" parent="1" vertex="1">
          <mxGeometry x="430" y="1900" width="240" height="60" as="geometry" />
        </mxCell>
        <mxCell id="SOE9RCbYgC2CAfu_grr3-15" style="edgeStyle=orthogonalEdgeStyle;rounded=0;orthogonalLoop=1;jettySize=auto;html=1;entryX=0;entryY=0.5;entryDx=0;entryDy=0;dashed=1;" parent="1" source="SOE9RCbYgC2CAfu_grr3-9" target="SOE9RCbYgC2CAfu_grr3-14" edge="1">
          <mxGeometry relative="1" as="geometry" />
        </mxCell>
        <mxCell id="SOE9RCbYgC2CAfu_grr3-9" value="&lt;div style=&quot;background-color: rgb(255 , 255 , 255) ; font-family: &amp;#34;droid sans mono&amp;#34; , monospace , monospace , &amp;#34;droid sans fallback&amp;#34; ; font-size: 18px ; line-height: 24px&quot;&gt;snd_soc_component_add_unlocked&lt;/div&gt;" style="whiteSpace=wrap;html=1;" parent="1" vertex="1">
          <mxGeometry x="430" y="2000" width="330" height="60" as="geometry" />
        </mxCell>
        <mxCell id="SOE9RCbYgC2CAfu_grr3-14" value="&lt;span style=&quot;font-family: &amp;#34;droid sans mono&amp;#34; , monospace , monospace , &amp;#34;droid sans fallback&amp;#34; ; font-size: 18px ; background-color: rgb(255 , 255 , 255)&quot;&gt;component_list&lt;/span&gt;" style="shape=process;whiteSpace=wrap;html=1;backgroundOutline=1;" parent="1" vertex="1">
          <mxGeometry x="950" y="2000" width="200" height="60" as="geometry" />
        </mxCell>
        <mxCell id="SOE9RCbYgC2CAfu_grr3-16" value="&lt;div style=&quot;background-color: rgb(255 , 255 , 255) ; font-family: &amp;#34;droid sans mono&amp;#34; , monospace , monospace , &amp;#34;droid sans fallback&amp;#34; ; font-size: 14px ; line-height: 24px&quot;&gt;component-&amp;gt;list&lt;/div&gt;" style="text;html=1;align=center;verticalAlign=middle;resizable=0;points=[];autosize=1;strokeColor=none;" parent="1" vertex="1">
          <mxGeometry x="785" y="2000" width="120" height="30" as="geometry" />
        </mxCell>
        <mxCell id="Q3NLW80Zpf64P7We51u1-7" style="edgeStyle=orthogonalEdgeStyle;rounded=0;orthogonalLoop=1;jettySize=auto;html=1;" parent="1" source="Q3NLW80Zpf64P7We51u1-1" target="Q3NLW80Zpf64P7We51u1-6" edge="1">
          <mxGeometry relative="1" as="geometry" />
        </mxCell>
        <mxCell id="Q3NLW80Zpf64P7We51u1-11" style="edgeStyle=orthogonalEdgeStyle;rounded=0;orthogonalLoop=1;jettySize=auto;html=1;entryX=0;entryY=0.5;entryDx=0;entryDy=0;" parent="1" source="Q3NLW80Zpf64P7We51u1-1" target="Q3NLW80Zpf64P7We51u1-10" edge="1">
          <mxGeometry relative="1" as="geometry" />
        </mxCell>
        <mxCell id="Q3NLW80Zpf64P7We51u1-1" value="&lt;div style=&quot;background-color: rgb(255 , 255 , 255) ; font-family: &amp;#34;droid sans mono&amp;#34; , &amp;#34;monospace&amp;#34; , monospace , &amp;#34;droid sans fallback&amp;#34; ; font-weight: normal ; font-size: 18px ; line-height: 19px&quot;&gt;&lt;div&gt;&lt;font style=&quot;font-size: 18px&quot;&gt;snd_soc_register_platform&lt;/font&gt;&lt;/div&gt;&lt;/div&gt;" style="whiteSpace=wrap;html=1;" parent="1" vertex="1">
          <mxGeometry x="30" y="2320" width="240" height="60" as="geometry" />
        </mxCell>
        <mxCell id="Q3NLW80Zpf64P7We51u1-5" style="edgeStyle=orthogonalEdgeStyle;rounded=0;orthogonalLoop=1;jettySize=auto;html=1;entryX=0;entryY=0.5;entryDx=0;entryDy=0;dashed=1;" parent="1" source="Q3NLW80Zpf64P7We51u1-2" target="Q3NLW80Zpf64P7We51u1-4" edge="1">
          <mxGeometry relative="1" as="geometry" />
        </mxCell>
        <mxCell id="Q3NLW80Zpf64P7We51u1-2" value="&lt;div style=&quot;background-color: rgb(255 , 255 , 255) ; font-family: &amp;#34;droid sans mono&amp;#34; , &amp;#34;monospace&amp;#34; , monospace , &amp;#34;droid sans fallback&amp;#34; ; font-weight: normal ; font-size: 18px ; line-height: 19px&quot;&gt;&lt;div&gt;&lt;font style=&quot;font-size: 18px&quot;&gt;kzalloc&lt;/font&gt;&lt;/div&gt;&lt;/div&gt;" style="whiteSpace=wrap;html=1;" parent="1" vertex="1">
          <mxGeometry x="430" y="1820" width="120" height="60" as="geometry" />
        </mxCell>
        <mxCell id="Q3NLW80Zpf64P7We51u1-4" value="&lt;div style=&quot;color: rgb(0 , 0 , 0) ; background-color: rgb(255 , 255 , 255) ; font-family: &amp;#34;droid sans mono&amp;#34; , &amp;#34;monospace&amp;#34; , monospace , &amp;#34;droid sans fallback&amp;#34; ; font-weight: normal ; font-size: 18px ; line-height: 19px&quot;&gt;&lt;div&gt;&lt;font style=&quot;font-size: 18px&quot;&gt;&lt;span style=&quot;color: #000000&quot;&gt;snd_soc_codec&lt;/span&gt;&lt;/font&gt;&lt;/div&gt;&lt;/div&gt;" style="shape=process;whiteSpace=wrap;html=1;backgroundOutline=1;" parent="1" vertex="1">
          <mxGeometry x="755" y="1820" width="150" height="60" as="geometry" />
        </mxCell>
        <mxCell id="Q3NLW80Zpf64P7We51u1-9" style="edgeStyle=orthogonalEdgeStyle;rounded=0;orthogonalLoop=1;jettySize=auto;html=1;entryX=0;entryY=0.5;entryDx=0;entryDy=0;dashed=1;" parent="1" source="Q3NLW80Zpf64P7We51u1-6" target="Q3NLW80Zpf64P7We51u1-8" edge="1">
          <mxGeometry relative="1" as="geometry" />
        </mxCell>
        <mxCell id="Q3NLW80Zpf64P7We51u1-6" value="&lt;div style=&quot;background-color: rgb(255 , 255 , 255) ; font-family: &amp;#34;droid sans mono&amp;#34; , &amp;#34;monospace&amp;#34; , monospace , &amp;#34;droid sans fallback&amp;#34; ; font-weight: normal ; font-size: 18px ; line-height: 19px&quot;&gt;&lt;div&gt;&lt;font style=&quot;font-size: 18px&quot;&gt;kzalloc&lt;/font&gt;&lt;/div&gt;&lt;/div&gt;" style="whiteSpace=wrap;html=1;" parent="1" vertex="1">
          <mxGeometry x="420" y="2290" width="120" height="60" as="geometry" />
        </mxCell>
        <mxCell id="ZIYHDu07OO-2ZHCDINki-1" style="edgeStyle=orthogonalEdgeStyle;rounded=0;orthogonalLoop=1;jettySize=auto;html=1;" edge="1" parent="1" source="Q3NLW80Zpf64P7We51u1-8" target="Q3NLW80Zpf64P7We51u1-14">
          <mxGeometry relative="1" as="geometry" />
        </mxCell>
        <mxCell id="Q3NLW80Zpf64P7We51u1-8" value="&lt;div style=&quot;background-color: rgb(255 , 255 , 255) ; font-family: &amp;#34;droid sans mono&amp;#34; , &amp;#34;monospace&amp;#34; , monospace , &amp;#34;droid sans fallback&amp;#34; ; font-weight: normal ; font-size: 18px ; line-height: 19px&quot;&gt;&lt;div&gt;&lt;font style=&quot;font-size: 18px&quot;&gt;snd_soc_platform&lt;/font&gt;&lt;/div&gt;&lt;/div&gt;" style="shape=process;whiteSpace=wrap;html=1;backgroundOutline=1;" parent="1" vertex="1">
          <mxGeometry x="590" y="2290" width="190" height="60" as="geometry" />
        </mxCell>
        <mxCell id="Q3NLW80Zpf64P7We51u1-13" style="edgeStyle=orthogonalEdgeStyle;rounded=0;orthogonalLoop=1;jettySize=auto;html=1;dashed=1;entryX=0;entryY=0.5;entryDx=0;entryDy=0;" parent="1" source="Q3NLW80Zpf64P7We51u1-10" target="Q3NLW80Zpf64P7We51u1-12" edge="1">
          <mxGeometry relative="1" as="geometry">
            <mxPoint x="740" y="2450" as="targetPoint" />
          </mxGeometry>
        </mxCell>
        <mxCell id="Q3NLW80Zpf64P7We51u1-10" value="&lt;div style=&quot;background-color: rgb(255 , 255 , 255) ; font-family: &amp;#34;droid sans mono&amp;#34; , &amp;#34;monospace&amp;#34; , monospace , &amp;#34;droid sans fallback&amp;#34; ; font-weight: normal ; font-size: 18px ; line-height: 19px&quot;&gt;&lt;div&gt;&lt;font style=&quot;font-size: 18px&quot;&gt;snd_soc_add_platform&lt;/font&gt;&lt;/div&gt;&lt;/div&gt;" style="whiteSpace=wrap;html=1;" parent="1" vertex="1">
          <mxGeometry x="420" y="2410" width="190" height="60" as="geometry" />
        </mxCell>
        <mxCell id="Q3NLW80Zpf64P7We51u1-12" value="&lt;div style=&quot;color: rgb(0 , 0 , 0) ; background-color: rgb(255 , 255 , 255) ; font-family: &amp;#34;droid sans mono&amp;#34; , &amp;#34;monospace&amp;#34; , monospace , &amp;#34;droid sans fallback&amp;#34; ; font-weight: normal ; font-size: 18px ; line-height: 19px&quot;&gt;&lt;div&gt;&lt;font style=&quot;font-size: 18px&quot;&gt;&lt;span style=&quot;color: #000000&quot;&gt;platform_list&lt;/span&gt;&lt;/font&gt;&lt;/div&gt;&lt;/div&gt;" style="shape=process;whiteSpace=wrap;html=1;backgroundOutline=1;" parent="1" vertex="1">
          <mxGeometry x="750" y="2410" width="160" height="60" as="geometry" />
        </mxCell>
        <mxCell id="Q3NLW80Zpf64P7We51u1-14" value="&lt;div style=&quot;background-color: rgb(255 , 255 , 255) ; font-family: &amp;#34;droid sans mono&amp;#34; , &amp;#34;monospace&amp;#34; , monospace , &amp;#34;droid sans fallback&amp;#34; ; font-weight: normal ; font-size: 14px ; line-height: 19px&quot;&gt;&lt;div&gt;platform-&amp;gt;list&lt;/div&gt;&lt;/div&gt;" style="text;html=1;align=center;verticalAlign=middle;resizable=0;points=[];autosize=1;strokeColor=none;" parent="1" vertex="1">
          <mxGeometry x="630" y="2420" width="110" height="20" as="geometry" />
        </mxCell>
        <mxCell id="Q3NLW80Zpf64P7We51u1-15" value="" style="endArrow=none;dashed=1;html=1;" parent="1" edge="1">
          <mxGeometry width="50" height="50" relative="1" as="geometry">
            <mxPoint x="10" y="1400" as="sourcePoint" />
            <mxPoint x="1170" y="1400" as="targetPoint" />
          </mxGeometry>
        </mxCell>
        <mxCell id="Q3NLW80Zpf64P7We51u1-16" value="&lt;font style=&quot;font-size: 18px&quot;&gt;&lt;b&gt;ALSA SOC&lt;/b&gt;&lt;/font&gt;" style="text;html=1;align=center;verticalAlign=middle;resizable=0;points=[];autosize=1;strokeColor=none;" parent="1" vertex="1">
          <mxGeometry y="1430" width="100" height="20" as="geometry" />
        </mxCell>
        <mxCell id="Q3NLW80Zpf64P7We51u1-17" value="&lt;b&gt;&lt;font style=&quot;font-size: 18px&quot;&gt;ALSA&lt;/font&gt;&lt;/b&gt;" style="text;html=1;align=center;verticalAlign=middle;resizable=0;points=[];autosize=1;strokeColor=none;" parent="1" vertex="1">
          <mxGeometry x="40" y="100" width="60" height="20" as="geometry" />
        </mxCell>
        <mxCell id="Q3NLW80Zpf64P7We51u1-18" value="" style="endArrow=none;dashed=1;html=1;" parent="1" edge="1">
          <mxGeometry width="50" height="50" relative="1" as="geometry">
            <mxPoint x="30" y="70" as="sourcePoint" />
            <mxPoint x="1190" y="70" as="targetPoint" />
          </mxGeometry>
        </mxCell>
        <mxCell id="Q3NLW80Zpf64P7We51u1-21" style="edgeStyle=orthogonalEdgeStyle;rounded=0;orthogonalLoop=1;jettySize=auto;html=1;entryX=0;entryY=0.5;entryDx=0;entryDy=0;" parent="1" source="Q3NLW80Zpf64P7We51u1-19" target="Q3NLW80Zpf64P7We51u1-20" edge="1">
          <mxGeometry relative="1" as="geometry" />
        </mxCell>
        <mxCell id="Q3NLW80Zpf64P7We51u1-19" value="&lt;div style=&quot;background-color: rgb(255 , 255 , 255) ; font-family: &amp;#34;droid sans mono&amp;#34; , &amp;#34;monospace&amp;#34; , monospace , &amp;#34;droid sans fallback&amp;#34; ; font-weight: normal ; font-size: 18px ; line-height: 19px&quot;&gt;&lt;div&gt;&lt;font style=&quot;font-size: 18px&quot;&gt;snd_soc_register_card&lt;/font&gt;&lt;/div&gt;&lt;/div&gt;" style="whiteSpace=wrap;html=1;" parent="1" vertex="1">
          <mxGeometry x="30" y="1590" width="210" height="60" as="geometry" />
        </mxCell>
        <mxCell id="Q3NLW80Zpf64P7We51u1-20" value="&lt;div style=&quot;background-color: rgb(255 , 255 , 255) ; font-family: &amp;#34;droid sans mono&amp;#34; , &amp;#34;monospace&amp;#34; , monospace , &amp;#34;droid sans fallback&amp;#34; ; font-weight: normal ; font-size: 18px ; line-height: 19px&quot;&gt;&lt;div&gt;&lt;font style=&quot;font-size: 18px&quot;&gt;snd_soc_instantiate_card&lt;/font&gt;&lt;/div&gt;&lt;/div&gt;" style="whiteSpace=wrap;html=1;" parent="1" vertex="1">
          <mxGeometry x="430" y="1590" width="230" height="60" as="geometry" />
        </mxCell>
        <mxCell id="ZIYHDu07OO-2ZHCDINki-2" value="&lt;div style=&quot;color: rgb(0 , 0 , 0) ; background-color: rgb(255 , 255 , 255) ; font-family: &amp;#34;droid sans mono&amp;#34; , &amp;#34;monospace&amp;#34; , monospace , &amp;#34;droid sans fallback&amp;#34; ; font-weight: normal ; font-size: 14px ; line-height: 19px&quot;&gt;&lt;div&gt;&lt;span style=&quot;color: #267f99&quot;&gt;snd_soc_platform_driver&lt;/span&gt;&lt;/div&gt;&lt;/div&gt;" style="text;html=1;align=center;verticalAlign=middle;resizable=0;points=[];autosize=1;strokeColor=none;" vertex="1" parent="1">
          <mxGeometry x="700" y="2370" width="180" height="20" as="geometry" />
        </mxCell>
        <mxCell id="ZIYHDu07OO-2ZHCDINki-8" style="edgeStyle=orthogonalEdgeStyle;rounded=0;orthogonalLoop=1;jettySize=auto;html=1;" edge="1" parent="1" source="ZIYHDu07OO-2ZHCDINki-3" target="ZIYHDu07OO-2ZHCDINki-7">
          <mxGeometry relative="1" as="geometry" />
        </mxCell>
        <mxCell id="ZIYHDu07OO-2ZHCDINki-3" value="&lt;font style=&quot;font-size: 18px&quot;&gt;snd_soc_add_platform_controls&lt;/font&gt;" style="whiteSpace=wrap;html=1;" vertex="1" parent="1">
          <mxGeometry x="40" y="2610" width="290" height="60" as="geometry" />
        </mxCell>
        <mxCell id="ZIYHDu07OO-2ZHCDINki-5" value="&lt;div style=&quot;color: rgb(0 , 0 , 0) ; background-color: rgb(255 , 255 , 255) ; font-family: &amp;#34;droid sans mono&amp;#34; , &amp;#34;monospace&amp;#34; , monospace , &amp;#34;droid sans fallback&amp;#34; ; font-weight: normal ; font-size: 14px ; line-height: 19px&quot;&gt;&lt;div&gt;&lt;span style=&quot;color: #267f99&quot;&gt;snd_kcontrol_new&lt;/span&gt;&lt;/div&gt;&lt;/div&gt;" style="text;html=1;align=center;verticalAlign=middle;resizable=0;points=[];autosize=1;strokeColor=none;" vertex="1" parent="1">
          <mxGeometry x="370" y="2650" width="130" height="20" as="geometry" />
        </mxCell>
        <mxCell id="ZIYHDu07OO-2ZHCDINki-6" value="&lt;div style=&quot;color: rgb(0 , 0 , 0) ; background-color: rgb(255 , 255 , 255) ; font-family: &amp;#34;droid sans mono&amp;#34; , &amp;#34;monospace&amp;#34; , monospace , &amp;#34;droid sans fallback&amp;#34; ; font-weight: normal ; font-size: 14px ; line-height: 19px&quot;&gt;&lt;div&gt;&lt;span style=&quot;color: #267f99&quot;&gt;snd_soc_platform&lt;/span&gt;&lt;/div&gt;&lt;/div&gt;" style="text;html=1;align=center;verticalAlign=middle;resizable=0;points=[];autosize=1;strokeColor=none;" vertex="1" parent="1">
          <mxGeometry x="370" y="2610" width="130" height="20" as="geometry" />
        </mxCell>
        <mxCell id="ZIYHDu07OO-2ZHCDINki-10" style="edgeStyle=orthogonalEdgeStyle;rounded=0;orthogonalLoop=1;jettySize=auto;html=1;" edge="1" parent="1" source="ZIYHDu07OO-2ZHCDINki-7" target="ZIYHDu07OO-2ZHCDINki-9">
          <mxGeometry relative="1" as="geometry" />
        </mxCell>
        <mxCell id="ZIYHDu07OO-2ZHCDINki-7" value="&lt;div style=&quot;background-color: rgb(255 , 255 , 255) ; font-family: &amp;#34;droid sans mono&amp;#34; , &amp;#34;monospace&amp;#34; , monospace , &amp;#34;droid sans fallback&amp;#34; ; font-size: 18px ; line-height: 19px&quot;&gt;&lt;div&gt;&lt;font style=&quot;font-size: 18px&quot;&gt;snd_soc_add_component_controls&lt;/font&gt;&lt;/div&gt;&lt;/div&gt;" style="whiteSpace=wrap;html=1;" vertex="1" parent="1">
          <mxGeometry x="590" y="2610" width="285" height="60" as="geometry" />
        </mxCell>
        <mxCell id="ZIYHDu07OO-2ZHCDINki-13" style="edgeStyle=orthogonalEdgeStyle;rounded=0;orthogonalLoop=1;jettySize=auto;html=1;entryX=0;entryY=0.5;entryDx=0;entryDy=0;" edge="1" parent="1" source="ZIYHDu07OO-2ZHCDINki-9" target="ZIYHDu07OO-2ZHCDINki-12">
          <mxGeometry relative="1" as="geometry" />
        </mxCell>
        <mxCell id="ZIYHDu07OO-2ZHCDINki-19" style="edgeStyle=orthogonalEdgeStyle;rounded=0;orthogonalLoop=1;jettySize=auto;html=1;entryX=0;entryY=0.5;entryDx=0;entryDy=0;" edge="1" parent="1" source="ZIYHDu07OO-2ZHCDINki-9" target="ZIYHDu07OO-2ZHCDINki-15">
          <mxGeometry relative="1" as="geometry" />
        </mxCell>
        <mxCell id="ZIYHDu07OO-2ZHCDINki-9" value="&lt;div style=&quot;background-color: rgb(255 , 255 , 255) ; font-family: &amp;#34;droid sans mono&amp;#34; , &amp;#34;monospace&amp;#34; , monospace , &amp;#34;droid sans fallback&amp;#34; ; font-weight: normal ; font-size: 18px ; line-height: 19px&quot;&gt;&lt;div&gt;&lt;font style=&quot;font-size: 18px&quot;&gt;snd_soc_add_controls&lt;/font&gt;&lt;/div&gt;&lt;/div&gt;" style="whiteSpace=wrap;html=1;" vertex="1" parent="1">
          <mxGeometry x="1000" y="2610" width="200" height="60" as="geometry" />
        </mxCell>
        <mxCell id="ZIYHDu07OO-2ZHCDINki-12" value="&lt;div style=&quot;background-color: rgb(255 , 255 , 255) ; font-family: &amp;#34;droid sans mono&amp;#34; , &amp;#34;monospace&amp;#34; , monospace , &amp;#34;droid sans fallback&amp;#34; ; font-weight: normal ; font-size: 18px ; line-height: 19px&quot;&gt;&lt;div&gt;&lt;font style=&quot;font-size: 18px&quot;&gt;snd_ctl_add&lt;/font&gt;&lt;/div&gt;&lt;/div&gt;" style="whiteSpace=wrap;html=1;" vertex="1" parent="1">
          <mxGeometry x="1430" y="2610" width="120" height="60" as="geometry" />
        </mxCell>
        <mxCell id="ZIYHDu07OO-2ZHCDINki-21" style="edgeStyle=orthogonalEdgeStyle;rounded=0;orthogonalLoop=1;jettySize=auto;html=1;entryX=0.5;entryY=0;entryDx=0;entryDy=0;" edge="1" parent="1" source="ZIYHDu07OO-2ZHCDINki-15" target="ZIYHDu07OO-2ZHCDINki-12">
          <mxGeometry relative="1" as="geometry" />
        </mxCell>
        <mxCell id="ZIYHDu07OO-2ZHCDINki-15" value="&lt;div style=&quot;background-color: rgb(255 , 255 , 255) ; font-family: &amp;#34;droid sans mono&amp;#34; , &amp;#34;monospace&amp;#34; , monospace , &amp;#34;droid sans fallback&amp;#34; ; font-weight: normal ; font-size: 18px ; line-height: 19px&quot;&gt;&lt;div&gt;&lt;font style=&quot;font-size: 18px&quot;&gt;snd_soc_cnew&lt;/font&gt;&lt;/div&gt;&lt;/div&gt;" style="whiteSpace=wrap;html=1;" vertex="1" parent="1">
          <mxGeometry x="1430" y="2480" width="120" height="60" as="geometry" />
        </mxCell>
        <mxCell id="ZIYHDu07OO-2ZHCDINki-17" value="&lt;div style=&quot;color: rgb(0 , 0 , 0) ; background-color: rgb(255 , 255 , 255) ; font-family: &amp;#34;droid sans mono&amp;#34; , &amp;#34;monospace&amp;#34; , monospace , &amp;#34;droid sans fallback&amp;#34; ; font-weight: normal ; font-size: 14px ; line-height: 19px&quot;&gt;&lt;div&gt;&lt;span style=&quot;color: #267f99&quot;&gt;snd_kcontrol&lt;/span&gt;&lt;/div&gt;&lt;/div&gt;" style="text;html=1;align=center;verticalAlign=middle;resizable=0;points=[];autosize=1;strokeColor=none;" vertex="1" parent="1">
          <mxGeometry x="1485" y="2560" width="100" height="20" as="geometry" />
        </mxCell>
      </root>
    </mxGraphModel>
  </diagram>
</mxfile>
